<?xml version="1.0" encoding="UTF-8" standalone="no"?>
<!DOCTYPE svg PUBLIC "-//W3C//DTD SVG 1.1//EN"
 "http://www.w3.org/Graphics/SVG/1.1/DTD/svg11.dtd">
<!-- Generated by graphviz version 2.40.1 (20161225.0304)
 -->
<!-- Title: G Pages: 1 -->
<svg width="131pt" height="130pt"
 viewBox="0.00 0.00 131.41 130.00" xmlns="http://www.w3.org/2000/svg" xmlns:xlink="http://www.w3.org/1999/xlink">
<g id="graph0" class="graph" transform="scale(1 1) rotate(0) translate(4 126)">
<title>G</title>
<polygon fill="#ffffff" stroke="transparent" points="-4,4 -4,-126 127.4097,-126 127.4097,4 -4,4"/>
<g id="clust1" class="cluster">
<title>cluster_Global</title>
<path fill="none" stroke="#c0c0c0" d="M20,-8C20,-8 103.4097,-8 103.4097,-8 109.4097,-8 115.4097,-14 115.4097,-20 115.4097,-20 115.4097,-102 115.4097,-102 115.4097,-108 109.4097,-114 103.4097,-114 103.4097,-114 20,-114 20,-114 14,-114 8,-108 8,-102 8,-102 8,-20 8,-20 8,-14 14,-8 20,-8"/>
<text text-anchor="middle" x="61.7048" y="-101.2" font-family="Times,serif" font-size="11.00" fill="#c0c0c0">Global</text>
</g>
<g id="clust2" class="cluster">
<title>cluster_\Office</title>
<path fill="none" stroke="#c0c0c0" d="M28,-16C28,-16 95.4097,-16 95.4097,-16 101.4097,-16 107.4097,-22 107.4097,-28 107.4097,-28 107.4097,-75 107.4097,-75 107.4097,-81 101.4097,-87 95.4097,-87 95.4097,-87 28,-87 28,-87 22,-87 16,-81 16,-75 16,-75 16,-28 16,-28 16,-22 22,-16 28,-16"/>
<text text-anchor="middle" x="61.7048" y="-74.2" font-family="Times,serif" font-size="11.00" fill="#c0c0c0">Office</text>
</g>
<!-- \\Office\\OfficeCOM -->
<g id="node1" class="node">
<title>\\Office\\OfficeCOM</title>
<polygon fill="none" stroke="#000000" points="99.6156,-60 23.794,-60 23.794,-24 99.6156,-24 99.6156,-60"/>
<text text-anchor="middle" x="61.7048" y="-38.7" font-family="Courier,monospace" font-size="11.00" fill="#000000">OfficeCOM</text>
</g>
</g>
</svg>
